HIERARCHY
ROOT newVegas:Hips
{
	OFFSET 0.000000 96.479958 0.000000
	CHANNELS 6 Xposition Yposition Zposition Xrotation Yrotation Zrotation
	JOINT newVegas:Pelvis
	{
		OFFSET 0.000000 0.000000 0.000000
		CHANNELS 3 Xrotation Yrotation Zrotation
		JOINT newVegas:LeftUpLeg
		{
			OFFSET 18.735201 -5.666702 -4.541200
			CHANNELS 3 Xrotation Yrotation Zrotation
			JOINT newVegas:LeftLeg
			{
				OFFSET -0.021200 -31.938179 0.493100
				CHANNELS 3 Xrotation Yrotation Zrotation
				JOINT newVegas:LeftFoot
				{
					OFFSET 0.021200 -31.938179 -4.336299
					CHANNELS 3 Xrotation Yrotation Zrotation
					JOINT newVegas:LeftToeBase
					{
						OFFSET 0.943001 -26.722000 15.023500
						CHANNELS 3 Xrotation Yrotation Zrotation
						End Site
						{
							OFFSET 0.000000 30.670183 0.000000
						}
					}
				}
				JOINT newVegas:Left_PantLeg
				{
					OFFSET 0.663870 -9.044666 -1.108900
					CHANNELS 3 Xrotation Yrotation Zrotation
					End Site
					{
						OFFSET 1.415995 20.635357 0.000000
					}
				}
			}
		}
		JOINT newVegas:RightUpLeg
		{
			OFFSET -18.735201 -5.666702 -4.541200
			CHANNELS 3 Xrotation Yrotation Zrotation
			JOINT newVegas:RightLeg
			{
				OFFSET 0.018946 -31.938133 0.493100
				CHANNELS 3 Xrotation Yrotation Zrotation
				JOINT newVegas:RightFoot
				{
					OFFSET -0.018946 -31.938126 -4.336299
					CHANNELS 3 Xrotation Yrotation Zrotation
					JOINT newVegas:RightToeBase
					{
						OFFSET -0.943001 -26.722004 15.023500
						CHANNELS 3 Xrotation Yrotation Zrotation
						End Site
						{
							OFFSET 0.000000 30.670187 0.000000
						}
					}
				}
				JOINT newVegas:Right_PantLeg
				{
					OFFSET -0.661674 -9.044716 -1.108900
					CHANNELS 3 Xrotation Yrotation Zrotation
					End Site
					{
						OFFSET -1.415958 20.635269 0.000000
					}
				}
			}
		}
	}
	JOINT newVegas:Spine
	{
		OFFSET 0.000000 10.199997 -0.299500
		CHANNELS 3 Xrotation Yrotation Zrotation
		JOINT newVegas:Spine1
		{
			OFFSET 0.000000 11.900002 -1.516600
			CHANNELS 3 Xrotation Yrotation Zrotation
			JOINT newVegas:Spine2
			{
				OFFSET 0.000000 13.600006 -2.842500
				CHANNELS 3 Xrotation Yrotation Zrotation
				JOINT newVegas:Neck
				{
					OFFSET 0.000000 9.624100 -2.890100
					CHANNELS 3 Xrotation Yrotation Zrotation
					JOINT newVegas:Head
					{
						OFFSET 0.000000 14.068802 -1.351900
						CHANNELS 3 Xrotation Yrotation Zrotation
						JOINT newVegas:Hair_Back
						{
							OFFSET 0.000000 3.231903 -17.524799
							CHANNELS 3 Xrotation Yrotation Zrotation
							End Site
							{
								OFFSET 0.000000 19.849884 0.000000
							}
						}
						JOINT newVegas:Hair_Front
						{
							OFFSET 0.000000 31.260406 4.573800
							CHANNELS 3 Xrotation Yrotation Zrotation
							JOINT newVegas:Hair_Front1
							{
								OFFSET 0.000000 2.284103 11.993300
								CHANNELS 3 Xrotation Yrotation Zrotation
								JOINT newVegas:Hair_Front2
								{
									OFFSET 0.000000 2.284103 11.993300
									CHANNELS 3 Xrotation Yrotation Zrotation
									End Site
									{
										OFFSET 0.000000 12.208862 0.000000
									}
								}
							}
						}
						JOINT newVegas:Jowel
						{
							OFFSET 0.000000 -7.458206 6.864100
							CHANNELS 3 Xrotation Yrotation Zrotation
							End Site
							{
								OFFSET 0.000000 19.849884 0.000000
							}
						}
					}
				}
				JOINT newVegas:LeftShoulder
				{
					OFFSET 15.263000 10.923401 -0.547700
					CHANNELS 3 Xrotation Yrotation Zrotation
					JOINT newVegas:LeftArm
					{
						OFFSET 25.438599 -2.830597 -13.032500
						CHANNELS 3 Xrotation Yrotation Zrotation
						JOINT newVegas:LeftForeArm
						{
							OFFSET 29.960503 0.000000 0.000000
							CHANNELS 3 Xrotation Yrotation Zrotation
							JOINT newVegas:LeftHand
							{
								OFFSET 27.849251 0.000000 0.000000
								CHANNELS 3 Xrotation Yrotation Zrotation
								JOINT newVegas:LeftHandThumb1
								{
									OFFSET 4.487587 -3.305161 6.305391
									CHANNELS 3 Xrotation Yrotation Zrotation
									JOINT newVegas:LeftHandThumb2
									{
										OFFSET 5.480453 -3.164139 3.164143
										CHANNELS 3 Xrotation Yrotation Zrotation
										JOINT newVegas:LeftHandThumb3
										{
											OFFSET 5.159721 -2.978973 2.978967
											CHANNELS 3 Xrotation Yrotation Zrotation
											End Site
											{
												OFFSET 2.494507 5.926697 1.738678
											}
										}
									}
								}
								JOINT newVegas:LeftHandIndex1
								{
									OFFSET 18.578728 -0.527832 5.208049
									CHANNELS 3 Xrotation Yrotation Zrotation
									JOINT newVegas:LeftHandIndex2
									{
										OFFSET 3.192009 0.000000 0.000000
										CHANNELS 3 Xrotation Yrotation Zrotation
										JOINT newVegas:LeftHandIndex3
										{
											OFFSET 3.835129 0.000000 0.000000
											CHANNELS 3 Xrotation Yrotation Zrotation
											End Site
											{
												OFFSET -0.034599 3.816971 0.371180
											}
										}
									}
								}
								JOINT newVegas:LeftHandMiddle1
								{
									OFFSET 18.476105 0.000000 0.000000
									CHANNELS 3 Xrotation Yrotation Zrotation
									JOINT newVegas:LeftHandMiddle2
									{
										OFFSET 3.324875 0.000000 0.000000
										CHANNELS 3 Xrotation Yrotation Zrotation
										JOINT newVegas:LeftHandMiddle3
										{
											OFFSET 4.596550 0.000000 0.000000
											CHANNELS 3 Xrotation Yrotation Zrotation
											End Site
											{
												OFFSET 0.057701 4.578827 0.399218
											}
										}
									}
								}
								JOINT newVegas:LeftHandRing1
								{
									OFFSET 17.732719 0.121887 -4.201567
									CHANNELS 3 Xrotation Yrotation Zrotation
									JOINT newVegas:LeftHandRing2
									{
										OFFSET 2.733170 0.000000 0.000000
										CHANNELS 3 Xrotation Yrotation Zrotation
										JOINT newVegas:LeftHandRing3
										{
											OFFSET 3.178268 0.000000 0.000000
											CHANNELS 3 Xrotation Yrotation Zrotation
											End Site
											{
												OFFSET 0.119102 3.170624 0.185394
											}
										}
									}
								}
								JOINT newVegas:LeftHandPinky1
								{
									OFFSET 15.989624 -0.606689 -7.535461
									CHANNELS 3 Xrotation Yrotation Zrotation
									JOINT newVegas:LeftHandPinky2
									{
										OFFSET 2.538986 0.000000 0.000000
										CHANNELS 3 Xrotation Yrotation Zrotation
										JOINT newVegas:LeftHandPinky3
										{
											OFFSET 2.593102 0.000000 0.000000
											CHANNELS 3 Xrotation Yrotation Zrotation
											End Site
											{
												OFFSET -0.150902 2.584198 0.152708
											}
										}
									}
								}
							}
							JOINT newVegas:Left_Sleeve
							{
								OFFSET 0.267448 -0.649796 0.577675
								CHANNELS 3 Xrotation Yrotation Zrotation
								End Site
								{
									OFFSET 0.000000 15.991241 0.000000
								}
							}
							JOINT newVegas:Left_CapeC
							{
								OFFSET 15.715958 -8.608795 -6.935905
								CHANNELS 3 Xrotation Yrotation Zrotation
								JOINT newVegas:Left_CapeC1
								{
									OFFSET 0.000000 -8.688499 0.000000
									CHANNELS 3 Xrotation Yrotation Zrotation
									End Site
									{
										OFFSET 0.000000 8.688499 0.000000
									}
								}
							}
						}
						JOINT newVegas:Left_CapeB
						{
							OFFSET 26.118385 -8.608795 -7.079235
							CHANNELS 3 Xrotation Yrotation Zrotation
							JOINT newVegas:Left_CapeB1
							{
								OFFSET 0.000000 -8.688499 0.000000
								CHANNELS 3 Xrotation Yrotation Zrotation
								End Site
								{
									OFFSET 0.000000 8.688499 0.000000
								}
							}
						}
						JOINT newVegas:Left_CapeA
						{
							OFFSET 5.115639 -8.608795 -10.395809
							CHANNELS 3 Xrotation Yrotation Zrotation
							JOINT newVegas:Left_CapeA1
							{
								OFFSET 0.000000 -8.688499 0.000000
								CHANNELS 3 Xrotation Yrotation Zrotation
								End Site
								{
									OFFSET 0.000000 8.688499 0.000000
								}
							}
						}
					}
				}
				JOINT newVegas:RightShoulder
				{
					OFFSET -15.263000 10.923401 -0.547700
					CHANNELS 3 Xrotation Yrotation Zrotation
					JOINT newVegas:RightArm
					{
						OFFSET -25.438599 -2.830597 -13.032500
						CHANNELS 3 Xrotation Yrotation Zrotation
						JOINT newVegas:RightForeArm
						{
							OFFSET -29.960503 0.000000 0.000000
							CHANNELS 3 Xrotation Yrotation Zrotation
							JOINT newVegas:RightHand
							{
								OFFSET -27.849251 0.000000 0.000000
								CHANNELS 3 Xrotation Yrotation Zrotation
								JOINT newVegas:RightHandThumb1
								{
									OFFSET -4.487587 -3.305161 6.305391
									CHANNELS 3 Xrotation Yrotation Zrotation
									JOINT newVegas:RightHandThumb2
									{
										OFFSET -5.480453 -3.164139 3.164143
										CHANNELS 3 Xrotation Yrotation Zrotation
										JOINT newVegas:RightHandThumb3
										{
											OFFSET -5.159721 -2.978973 2.978967
											CHANNELS 3 Xrotation Yrotation Zrotation
											End Site
											{
												OFFSET -2.494507 5.926697 1.738678
											}
										}
									}
								}
								JOINT newVegas:RightHandIndex1
								{
									OFFSET -18.578728 -0.527832 5.208049
									CHANNELS 3 Xrotation Yrotation Zrotation
									JOINT newVegas:RightHandIndex2
									{
										OFFSET -3.192009 0.000000 0.000000
										CHANNELS 3 Xrotation Yrotation Zrotation
										JOINT newVegas:RightHandIndex3
										{
											OFFSET -3.835129 0.000000 0.000000
											CHANNELS 3 Xrotation Yrotation Zrotation
											End Site
											{
												OFFSET 0.034599 3.816971 0.371180
											}
										}
									}
								}
								JOINT newVegas:RightHandMiddle1
								{
									OFFSET -18.476105 0.000000 0.000000
									CHANNELS 3 Xrotation Yrotation Zrotation
									JOINT newVegas:RightHandMiddle2
									{
										OFFSET -3.324875 0.000000 0.000000
										CHANNELS 3 Xrotation Yrotation Zrotation
										JOINT newVegas:RightHandMiddle3
										{
											OFFSET -4.596550 0.000000 0.000000
											CHANNELS 3 Xrotation Yrotation Zrotation
											End Site
											{
												OFFSET -0.057701 4.578827 0.399218
											}
										}
									}
								}
								JOINT newVegas:RightHandRing1
								{
									OFFSET -17.732719 0.121887 -4.201567
									CHANNELS 3 Xrotation Yrotation Zrotation
									JOINT newVegas:RightHandRing2
									{
										OFFSET -2.733170 0.000000 0.000000
										CHANNELS 3 Xrotation Yrotation Zrotation
										JOINT newVegas:RightHandRing3
										{
											OFFSET -3.178268 0.000000 0.000000
											CHANNELS 3 Xrotation Yrotation Zrotation
											End Site
											{
												OFFSET -0.119102 3.170624 0.185394
											}
										}
									}
								}
								JOINT newVegas:RightHandPinky1
								{
									OFFSET -15.989624 -0.606689 -7.535461
									CHANNELS 3 Xrotation Yrotation Zrotation
									JOINT newVegas:RightHandPinky2
									{
										OFFSET -2.538986 0.000000 0.000000
										CHANNELS 3 Xrotation Yrotation Zrotation
										JOINT newVegas:RightHandPinky3
										{
											OFFSET -2.593102 0.000000 0.000000
											CHANNELS 3 Xrotation Yrotation Zrotation
											End Site
											{
												OFFSET 0.150902 2.584198 0.152708
											}
										}
									}
								}
							}
							JOINT newVegas:Right_CapeC
							{
								OFFSET -15.715958 -8.608795 -6.935905
								CHANNELS 3 Xrotation Yrotation Zrotation
								JOINT newVegas:Right_CapeC1
								{
									OFFSET 0.000000 -8.688499 0.000000
									CHANNELS 3 Xrotation Yrotation Zrotation
									End Site
									{
										OFFSET 0.000000 8.688499 0.000000
									}
								}
							}
							JOINT newVegas:Right_Sleeve
							{
								OFFSET -0.267448 -0.649994 0.577675
								CHANNELS 3 Xrotation Yrotation Zrotation
								End Site
								{
									OFFSET 0.000000 15.991302 0.000000
								}
							}
						}
						JOINT newVegas:Right_CapeA
						{
							OFFSET -5.115540 -8.608795 -10.395824
							CHANNELS 3 Xrotation Yrotation Zrotation
							JOINT newVegas:Right_CapeA1
							{
								OFFSET 0.000000 -8.688499 0.000000
								CHANNELS 3 Xrotation Yrotation Zrotation
								End Site
								{
									OFFSET 0.000000 8.688499 0.000000
								}
							}
						}
						JOINT newVegas:Right_CapeB
						{
							OFFSET -26.118187 -8.608795 -7.079266
							CHANNELS 3 Xrotation Yrotation Zrotation
							JOINT newVegas:Right_CapeB1
							{
								OFFSET 0.000000 -8.688499 0.000000
								CHANNELS 3 Xrotation Yrotation Zrotation
								End Site
								{
									OFFSET 0.000000 8.688499 0.000000
								}
							}
						}
					}
				}
				JOINT newVegas:Left_Collar
				{
					OFFSET 18.625099 8.655502 8.828100
					CHANNELS 3 Xrotation Yrotation Zrotation
					JOINT newVegas:Left_Collar1
					{
						OFFSET 14.783401 10.540405 -1.259500
						CHANNELS 3 Xrotation Yrotation Zrotation
						End Site
						{
							OFFSET 0.000000 18.199875 0.000000
						}
					}
				}
				JOINT newVegas:Collar_Back
				{
					OFFSET 0.000000 15.630707 -20.132601
					CHANNELS 3 Xrotation Yrotation Zrotation
					End Site
					{
						OFFSET 0.000000 22.523010 0.000000
					}
				}
				JOINT newVegas:Left_Peck
				{
					OFFSET 17.239599 -5.132599 25.482599
					CHANNELS 3 Xrotation Yrotation Zrotation
					End Site
					{
						OFFSET 0.000000 22.523010 0.000000
					}
				}
				JOINT newVegas:Right_Peck
				{
					OFFSET -17.239599 -5.132202 25.482599
					CHANNELS 3 Xrotation Yrotation Zrotation
					End Site
					{
						OFFSET 0.000000 22.523010 0.000000
					}
				}
				JOINT newVegas:Right_Collar
				{
					OFFSET -18.625099 8.655792 8.828100
					CHANNELS 3 Xrotation Yrotation Zrotation
					JOINT newVegas:Right_Collar1
					{
						OFFSET -14.783401 10.539993 -1.259500
						CHANNELS 3 Xrotation Yrotation Zrotation
						End Site
						{
							OFFSET 0.000000 18.199631 0.000000
						}
					}
				}
			}
		}
		JOINT newVegas:Belly
		{
			OFFSET 0.000000 -6.540398 9.014299
			CHANNELS 3 Xrotation Yrotation Zrotation
			End Site
			{
				OFFSET 0.000000 11.566666 0.000000
			}
		}
	}
	JOINT newVegas:ElvisFacialAnim_Joint
	{
		OFFSET 1.000000 -95.330101 -8.825800
		CHANNELS 3 Xrotation Yrotation Zrotation
		End Site
		{
			OFFSET 0.000000 35.315800 0.000000
		}
	}
}
MOTION
Frames: 4
Frame Time: 0.033333
2.420346 75.462975 144.430679 14.915361 25.419307 -6.263920 0.000001 0.000001 0.000000 -1.295335 19.024652 26.469667 23.296857 -10.172512 -2.077337 40.264068 -2.118061 -1.575589 -0.000000 0.000001 -0.000001 0.000000 -0.000001 0.000000 -80.333386 14.568974 -2.131136 67.438897 10.520855 5.070905 -0.638700 -0.827909 6.485615 0.000000 0.000001 -0.000000 -0.000000 0.000004 0.000000 35.301409 -24.372895 -22.959124 1.935494 -4.516846 -1.983481 2.063528 -4.671067 -0.764546 -5.011528 -0.505090 1.495691 -5.011530 -0.505089 1.495683 -0.000003 0.000002 0.000001 -5.011463 -0.505046 1.495710 -5.011596 -0.505121 1.495699 0.000002 -0.000001 0.000001 -0.000003 0.000002 -0.000001 -37.283861 -46.577375 29.913155 12.988850 18.368477 -74.283423 3.458150 -101.846474 -15.173141 -75.888845 36.512262 5.688249 -7.471943 1.860694 -7.166926 30.987018 27.310539 -4.510897 0.000001 -0.000002 -0.000003 -4.707398 11.366695 -75.214453 -0.816398 3.073998 -46.874632 0.000001 0.000001 0.000000 1.623358 16.580931 -84.691279 0.018005 0.022038 -72.884860 -0.000002 -0.000000 -0.000001 -6.443140 23.132632 -76.210178 0.012871 0.975919 -51.002983 -0.000000 -0.000001 -0.000000 -17.098967 22.128975 -43.123192 0.019737 0.027005 -78.662872 0.000001 -0.000003 0.000001 -0.000000 0.000000 0.000000 -0.000000 0.000000 0.000000 -0.000000 -0.000000 -0.000000 -0.000000 0.000000 0.000000 -0.000000 0.000000 0.000000 -0.000000 0.000000 0.000000 0.000000 -0.000000 -0.000000 -13.780291 18.768474 -3.468620 -64.403752 28.800169 86.881967 0.045751 57.851272 -20.378201 -71.135232 -35.114006 -66.559797 9.347179 2.810542 -11.364508 16.169035 -43.266035 15.843529 0.000001 -0.000001 -0.000002 17.076798 -0.396554 31.924349 -0.204409 -0.284203 112.811584 0.000000 0.000002 0.000000 9.205477 -5.035862 102.738107 0.014966 -0.019202 61.018506 0.000002 -0.000001 -0.000003 5.569146 -8.935201 107.329101 0.547981 -0.005773 41.263714 -0.000002 0.000002 -0.000001 6.511283 -17.148267 98.228031 0.007408 -0.015737 43.845730 0.000001 0.000003 -0.000000 -0.000001 -0.000003 -0.000002 -0.000001 -0.000004 -0.000002 -0.000001 -0.000003 -0.000003 0.000000 0.000000 -0.000000 -0.000000 0.000000 0.000001 0.000000 0.000000 -0.000000 0.000000 0.000000 0.000003 0.000002 -0.000001 0.000002 0.000002 -0.000001 0.000002 0.000002 -0.000001 0.000002 0.000002 -0.000001 0.000002 0.000002 -0.000001 0.000002 0.000002 -0.000001 0.000002 0.000002 -0.000001 0.000002 0.000001 -0.000001 -0.000000 0.000001 0.000001 0.000000 
3.338005 77.034706 148.826828 14.216099 19.542443 -4.603518 0.000001 -0.000001 0.000000 -6.915690 19.038092 27.595358 33.841593 -21.795395 -9.030329 37.860763 -2.647262 -1.549664 -0.000000 0.000000 -0.000000 -0.000000 0.000002 -0.000001 -78.124073 15.332902 1.812512 66.164220 10.598156 4.876164 -0.957638 -0.928432 7.326517 0.000000 0.000003 -0.000000 -0.000001 0.000006 -0.000001 35.132434 -27.347210 -22.671450 -0.693148 -4.738379 -1.447238 -0.478036 -4.679775 -0.076620 -3.377489 -0.197262 1.843638 -3.377515 -0.197252 1.843654 -0.000001 0.000000 0.000003 -3.377420 -0.197255 1.843660 -3.377532 -0.197278 1.843665 0.000003 0.000001 0.000002 -0.000001 0.000000 0.000002 -30.010270 -42.586042 27.902735 6.395113 13.536438 -73.467605 4.496898 -101.812726 -19.021271 -14.238664 37.719515 -3.934837 -7.471942 1.860693 -7.166924 30.987018 27.310535 -4.510896 0.000003 -0.000001 -0.000006 -4.707391 11.366692 -75.214453 -0.816396 3.074001 -46.874629 -0.000002 0.000000 -0.000001 1.623366 16.580926 -84.691286 0.018002 0.022037 -72.884860 -0.000002 -0.000003 -0.000002 -6.443139 23.132633 -76.210192 0.012875 0.975922 -51.002986 0.000002 0.000001 0.000001 -17.098952 22.128959 -43.123181 0.019713 0.026984 -78.662879 -0.000000 -0.000003 0.000000 0.000000 0.000001 -0.000004 0.000000 0.000001 -0.000004 -0.000000 0.000001 -0.000004 0.000000 -0.000003 0.000001 0.000000 -0.000003 0.000001 0.000000 -0.000003 0.000001 0.000000 -0.000003 0.000001 -11.249205 8.383156 -1.794008 -48.840589 20.410934 92.331488 0.538248 72.084778 -12.101359 -70.984305 -7.246899 -79.079377 9.347175 2.810537 -11.364504 16.169037 -43.266028 15.843534 0.000001 -0.000002 -0.000001 17.076798 -0.396557 31.924349 -0.204407 -0.284210 112.811584 -0.000000 -0.000000 -0.000000 9.205475 -5.035865 102.738107 0.014965 -0.019203 61.018513 0.000001 0.000000 0.000000 5.569141 -8.935201 107.329094 0.547985 -0.005775 41.263707 0.000004 -0.000001 0.000001 6.511274 -17.148269 98.228031 0.007402 -0.015735 43.845727 0.000000 0.000002 -0.000003 -0.000001 -0.000001 -0.000000 -0.000001 -0.000003 0.000002 -0.000001 -0.000001 0.000002 0.000001 0.000001 -0.000002 0.000001 0.000001 -0.000003 0.000001 0.000001 -0.000002 0.000001 0.000001 -0.000002 -0.000001 0.000001 0.000002 -0.000001 0.000001 0.000002 -0.000001 0.000001 0.000002 -0.000001 0.000001 0.000002 -0.000001 0.000001 0.000002 -0.000001 0.000001 0.000002 -0.000001 0.000001 0.000002 -0.000003 0.000002 0.000003 0.000001 -0.000001 0.000000 
3.658878 78.875366 153.420761 13.671789 15.455835 -3.755064 0.000001 -0.000001 -0.000000 -15.228829 16.803607 31.842731 48.249607 -30.031365 -12.789919 27.198413 -2.040873 -5.438029 -0.000000 0.000000 -0.000002 -0.000000 -0.000000 -0.000000 -74.442000 14.670944 4.744585 65.776238 9.569877 5.390142 -3.562915 -0.606383 4.056169 -0.000000 0.000002 -0.000000 0.000000 -0.000001 -0.000001 36.003481 -31.226119 -20.803272 -3.522713 -5.202575 -1.060969 -3.277346 -4.946196 0.643372 -1.856287 0.142871 2.228109 -1.856306 0.142866 2.228127 0.000002 0.000000 0.000001 -1.856240 0.142946 2.228103 -1.856400 0.142770 2.228119 0.000001 -0.000002 -0.000003 0.000002 0.000000 -0.000001 -17.951510 -38.738244 29.709240 -6.551279 2.892597 -77.301301 -3.879046 -94.350177 -29.085835 46.110040 37.440607 -12.009250 -7.471939 1.860688 -7.166925 30.987014 27.310535 -4.510897 0.000004 -0.000001 -0.000006 -4.707392 11.366692 -75.214453 -0.816400 3.074000 -46.874629 0.000001 0.000001 -0.000000 1.623367 16.580899 -84.691279 0.018000 0.022043 -72.884860 -0.000000 -0.000001 0.000001 -6.443159 23.132609 -76.210199 0.012872 0.975918 -51.002983 -0.000005 -0.000001 0.000000 -17.098989 22.128935 -43.123188 0.019725 0.026999 -78.662879 0.000004 0.000000 0.000001 0.000001 -0.000000 0.000001 0.000001 -0.000000 0.000001 0.000000 -0.000000 0.000001 0.000003 0.000000 -0.000001 0.000003 -0.000001 -0.000000 0.000003 0.000000 -0.000001 0.000003 -0.000001 -0.000000 -8.036958 -0.803983 -1.973907 -31.079096 12.752247 92.194863 0.449419 80.403477 -0.398478 -74.095053 17.628278 -77.479467 9.347175 2.810541 -11.364506 16.169032 -43.266031 15.843527 0.000002 -0.000002 -0.000003 17.076800 -0.396553 31.924352 -0.204412 -0.284205 112.811584 -0.000000 -0.000002 0.000002 9.205477 -5.035863 102.738107 0.014968 -0.019202 61.018506 0.000000 0.000000 0.000000 5.569145 -8.935202 107.329101 0.547980 -0.005773 41.263710 0.000000 -0.000001 -0.000000 6.511282 -17.148266 98.228031 0.007406 -0.015740 43.845723 -0.000001 0.000003 -0.000000 -0.000002 -0.000001 0.000002 -0.000002 0.000001 -0.000001 -0.000002 -0.000001 0.000001 0.000000 -0.000001 -0.000001 0.000001 0.000000 -0.000001 0.000000 -0.000001 -0.000001 0.000001 -0.000000 0.000001 0.000003 -0.000001 -0.000001 0.000003 -0.000001 -0.000001 0.000003 -0.000001 -0.000001 0.000003 -0.000001 -0.000001 0.000003 -0.000001 -0.000001 0.000003 -0.000001 -0.000001 0.000003 -0.000001 -0.000001 -0.000000 -0.000000 0.000001 0.000001 -0.000001 -0.000000 
3.027836 81.244888 158.825928 12.507325 10.947500 -3.185222 -0.000000 -0.000001 0.000000 -28.084027 13.186852 30.786248 70.438600 -21.176325 -7.257982 19.813814 -0.906055 5.455585 -0.000000 -0.000001 0.000001 0.000000 0.000000 0.000002 -68.266177 14.723338 8.729238 63.090935 8.157267 6.380256 -6.292330 -0.063113 0.146006 -0.000000 0.000001 -0.000000 -0.000000 -0.000001 -0.000001 36.538674 -35.320366 -19.044494 -5.905241 -5.942547 -0.356507 -5.592926 -5.465071 1.843098 -0.672703 0.273244 2.178587 -0.672714 0.273252 2.178603 -0.000002 -0.000002 -0.000003 -0.672697 0.273233 2.178586 -0.672731 0.273264 2.178585 0.000001 0.000000 -0.000001 -0.000002 -0.000002 -0.000001 -9.796457 -44.762014 31.482063 -15.951046 -4.688718 -85.743524 0.241797 -78.022993 -21.249492 72.938279 33.498325 -17.683271 -7.471945 1.860690 -7.166924 30.987014 27.310537 -4.510898 0.000001 0.000000 0.000003 -4.707392 11.366693 -75.214453 -0.816394 3.074003 -46.874625 -0.000005 0.000002 0.000000 1.623360 16.580935 -84.691286 0.017997 0.022037 -72.884860 0.000001 0.000002 -0.000001 -6.443157 23.132638 -76.210172 0.012874 0.975916 -51.002979 0.000003 -0.000001 0.000000 -17.098967 22.128964 -43.123171 0.019715 0.027011 -78.662886 0.000002 0.000002 -0.000000 0.000000 0.000002 -0.000001 0.000000 0.000002 -0.000001 0.000000 0.000003 -0.000001 -0.000001 0.000003 0.000002 -0.000001 0.000002 0.000003 -0.000001 0.000003 0.000002 -0.000001 0.000002 0.000002 -4.527593 -8.456672 -4.000400 -19.174755 7.270418 90.926374 -0.027590 78.544484 7.415831 -87.107663 37.253211 -64.618234 9.347177 2.810535 -11.364503 16.169032 -43.266028 15.843534 0.000002 -0.000000 -0.000001 17.076796 -0.396555 31.924352 -0.204410 -0.284202 112.811584 0.000001 0.000002 0.000002 9.205478 -5.035866 102.738100 0.014962 -0.019201 61.018506 0.000001 -0.000001 -0.000001 5.569146 -8.935206 107.329101 0.547983 -0.005775 41.263714 0.000004 0.000006 0.000002 6.511277 -17.148269 98.228031 0.007411 -0.015740 43.845727 -0.000003 0.000003 0.000002 -0.000000 0.000002 -0.000001 -0.000000 0.000002 0.000000 -0.000000 0.000001 -0.000001 0.000001 0.000000 -0.000002 0.000001 0.000000 -0.000002 0.000001 0.000000 -0.000002 0.000001 -0.000000 -0.000000 0.000003 0.000000 0.000000 0.000003 0.000000 0.000000 0.000003 0.000000 0.000000 0.000003 0.000000 0.000000 0.000003 0.000000 0.000000 0.000003 0.000000 0.000000 0.000003 0.000000 0.000000 0.000002 -0.000001 0.000001 -0.000000 -0.000001 0.000000 
